<?xml version="1.0" encoding="utf-8"?>
<!-- Generator: Adobe Illustrator 15.1.0, SVG Export Plug-In . SVG Version: 6.00 Build 0)  -->
<!DOCTYPE svg PUBLIC "-//W3C//DTD SVG 1.1//EN" "http://www.w3.org/Graphics/SVG/1.1/DTD/svg11.dtd">
<svg version="1.1" xmlns="http://www.w3.org/2000/svg" xmlns:xlink="http://www.w3.org/1999/xlink" x="0px" y="0px"
	 width="3676.001px" height="2717.076px" viewBox="0 0 3676.001 2717.076" enable-background="new 0 0 3676.001 2717.076"
	 xml:space="preserve">
<symbol  id="Stairs_Icon" viewBox="-10.133 -10.62 20.267 21.24">
	<polygon points="3.627,-9.181 3.627,-7.261 0.973,-7.261 0.973,-4.606 -1.679,-4.606 -1.679,-1.955 -4.333,-1.955 -4.333,0.7 
		-6.986,0.7 -6.986,3.353 -10.133,3.353 -10.133,2.819 3.307,-10.62 3.307,-10.62 3.627,-10.62 8.64,-10.62 10.133,-9.181 	"/>
	<g>
		<path fill-rule="evenodd" clip-rule="evenodd" d="M6.041,9.139c0-0.816-0.591-1.479-1.32-1.479S3.401,8.322,3.401,9.139
			c0,0.818,0.59,1.481,1.319,1.481S6.041,9.957,6.041,9.139z"/>
		<path fill-rule="evenodd" clip-rule="evenodd" d="M6.131-8.805"/>
		<path fill-rule="evenodd" clip-rule="evenodd" d="M4.211-7.525"/>
		<g>
			<path fill="none" d="M6.452,3.354C6.559,3.461,6.612,3.6,6.612,4c0,0.474-0.085,0.423-0.16,0.635
				C5.942,4.811,5.942,3.178,6.452,3.354z"/>
			<path d="M8.371,4.795c-0.571,1.027-1.169,2.03-1.919,2.88c0,0-2.002-0.053-2.88-0.32c-0.531,0-0.64-0.641-0.64-0.641
				C3.121,4.183-0.893,2.7-0.108,1.915c0.785-0.786,2.519,0.701,3.359,1.279c-0.124-0.977,0.21-1.496,0.16-2.399
				c-0.63-0.848-1.987-1.234-2.239-2.56c-0.186-0.974,0.306-1.836,0.319-3.04L1.92-6.54c0,0,0.476-0.794,1.012-0.664
				c1.481,0.88-0.211,2.878,0.16,4.639c0.252,0.281,0.734,0.333,0.799,0.801l0.32-0.16c0-1.866,0-3.572,0-5.439
				c0-1.144,0.482-1.816,0.829-1.816s0.906,0,1.091,0.537C6.81-5.696,6.199-1.618,6.771,1.435C7.813,2.047,8.583,2.929,8.371,4.795z
				 M6.452,3.354c-0.51-0.177-0.51,1.456,0,1.28C6.527,4.423,6.612,4.474,6.612,4C6.612,3.6,6.559,3.461,6.452,3.354z"/>
		</g>
	</g>
</symbol>
<g id="Glyphs">
	
		<use xlink:href="#Stairs_Icon"  width="20.267" height="21.24" id="XMLID_2_" x="-10.133" y="-10.62" transform="matrix(4.6938 0 0 -4.6938 1890.3325 1275.3911)" overflow="visible"/>
</g>
<g id="Elevators">
	<rect x="1198.829" y="1188.636" fill="#CCCBCB" width="178.183" height="440.902"/>
	<rect x="749.162" y="1188.636" fill="#CCCBCB" width="174.371" height="440.902"/>
</g>
<g id="Interior_Walls">
	<path fill="#797979" d="M1492.629,865.161h-316.55c-1.521,0-2.753-1.232-2.753-2.753s1.232-2.753,2.753-2.753h316.55
		c1.521,0,2.753,1.232,2.753,2.753S1494.15,865.161,1492.629,865.161z"/>
	<path fill="#797979" d="M1492.629,1054.593c-1.521,0-2.753-1.232-2.753-2.753V862.408c0-1.521,1.232-2.753,2.753-2.753
		s2.753,1.232,2.753,2.753v189.433C1495.382,1053.361,1494.15,1054.593,1492.629,1054.593z"/>
	<path fill="#797979" d="M1872.736,865.161h-348.95c-1.521,0-2.753-1.232-2.753-2.753s1.232-2.753,2.753-2.753h348.95
		c1.521,0,2.753,1.232,2.753,2.753S1874.256,865.161,1872.736,865.161z"/>
	<path fill="#797979" d="M1523.786,1054.593c-1.521,0-2.753-1.232-2.753-2.753V862.408c0-1.521,1.232-2.753,2.753-2.753
		s2.753,1.232,2.753,2.753v189.433C1526.539,1053.361,1525.307,1054.593,1523.786,1054.593z"/>
	<path fill="#797979" d="M1522.547,984.808h-28.214c-1.521,0-2.753-1.232-2.753-2.753s1.232-2.753,2.753-2.753h28.214
		c1.521,0,2.753,1.232,2.753,2.753S1524.067,984.808,1522.547,984.808z"/>
	<path fill="#797979" d="M1136.88,719.476c-1.222,0-2.338-0.82-2.662-2.058c-0.384-1.471,0.497-2.975,1.968-3.359l81.191-21.209
		c1.472-0.386,2.976,0.497,3.359,1.968c0.384,1.471-0.497,2.975-1.968,3.359l-81.191,21.209
		C1137.345,719.446,1137.111,719.476,1136.88,719.476z"/>
	<path fill="#797979" d="M1136.88,631.154c-1.222,0-2.338-0.82-2.662-2.058c-0.384-1.471,0.497-2.975,1.968-3.359l81.191-21.209
		c1.472-0.383,2.976,0.497,3.359,1.968c0.384,1.471-0.497,2.975-1.968,3.359l-81.191,21.209
		C1137.345,631.125,1137.111,631.154,1136.88,631.154z"/>
	<path fill="#797979" d="M1136.88,542.163c-1.222,0-2.338-0.82-2.662-2.058c-0.384-1.471,0.497-2.975,1.968-3.359l81.191-21.209
		c1.472-0.385,2.976,0.497,3.359,1.968c0.384,1.471-0.497,2.975-1.968,3.359l-81.191,21.209
		C1137.345,542.134,1137.111,542.163,1136.88,542.163z"/>
	<path fill="#797979" d="M2323.864,481.321h-250.488c-1.521,0-2.753-1.232-2.753-2.753s1.232-2.753,2.753-2.753h250.488
		c1.521,0,2.753,1.232,2.753,2.753S2325.384,481.321,2323.864,481.321z"/>
	<path fill="#797979" d="M2323.864,672.29h-250.488c-1.521,0-2.753-1.232-2.753-2.753s1.232-2.753,2.753-2.753h250.488
		c1.521,0,2.753,1.232,2.753,2.753S2325.384,672.29,2323.864,672.29z"/>
	<path fill="#797979" d="M2205.472,1054.593c-1.521,0-2.753-1.232-2.753-2.753v-74.776c0-1.521,1.232-2.753,2.753-2.753
		s2.753,1.232,2.753,2.753v74.776C2208.225,1053.361,2206.993,1054.593,2205.472,1054.593z"/>
	<path fill="#797979" d="M1537.332,1634.39c-1.521,0-2.753-1.232-2.753-2.753v-443c0-1.521,1.232-2.753,2.753-2.753
		s2.753,1.232,2.753,2.753v443C1540.085,1633.157,1538.853,1634.39,1537.332,1634.39z"/>
	<path fill="#797979" d="M1720.333,1384.847c-1.521,0-2.753-1.232-2.753-2.753v-193.458c0-1.521,1.232-2.753,2.753-2.753
		s2.753,1.232,2.753,2.753v193.458C1723.086,1383.614,1721.854,1384.847,1720.333,1384.847z"/>
	<path fill="#797979" d="M2318.884,1384.847h-598.551c-1.521,0-2.753-1.232-2.753-2.753s1.232-2.753,2.753-2.753h598.551
		c1.521,0,2.753,1.232,2.753,2.753S2320.405,1384.847,2318.884,1384.847z"/>
	<path fill="#797979" d="M1843,1634.39c-1.521,0-2.753-1.232-2.753-2.753v-249.543c0-1.521,1.232-2.753,2.753-2.753
		s2.753,1.232,2.753,2.753v249.543C1845.752,1633.157,1844.52,1634.39,1843,1634.39z"/>
	<path fill="#797979" d="M2100.667,1384.847c-1.521,0-2.753-1.232-2.753-2.753v-193.458c0-1.521,1.232-2.753,2.753-2.753
		s2.753,1.232,2.753,2.753v193.458C2103.419,1383.614,2102.187,1384.847,2100.667,1384.847z"/>
	<path fill="#797979" d="M924.6,1415.957H748.145c-1.521,0-2.753-1.232-2.753-2.753s1.232-2.753,2.753-2.753H924.6
		c1.521,0,2.753,1.232,2.753,2.753S926.12,1415.957,924.6,1415.957z"/>
	<path fill="#797979" d="M1376.727,1415.957h-177.898c-1.521,0-2.753-1.232-2.753-2.753s1.232-2.753,2.753-2.753h177.898
		c1.521,0,2.753,1.232,2.753,2.753S1378.247,1415.957,1376.727,1415.957z"/>
	<path fill="#797979" d="M925.592,2570.028c-1.521,0-2.753-1.232-2.753-2.753v-228.071c0-1.521,1.232-2.753,2.753-2.753
		s2.753,1.232,2.753,2.753v228.071C928.345,2568.796,927.112,2570.028,925.592,2570.028z"/>
	<path fill="#797979" d="M1107.541,2570.028c-1.521,0-2.753-1.232-2.753-2.753v-228.071c0-1.521,1.232-2.753,2.753-2.753
		s2.753,1.232,2.753,2.753v228.071C1110.293,2568.796,1109.061,2570.028,1107.541,2570.028z"/>
	<path fill="#797979" d="M1307.667,2570.028c-1.521,0-2.753-1.232-2.753-2.753v-228.071c0-1.521,1.232-2.753,2.753-2.753
		s2.753,1.232,2.753,2.753v228.071C1310.419,2568.796,1309.187,2570.028,1307.667,2570.028z"/>
	<path fill="#797979" d="M1607.909,2570.028c-1.521,0-2.753-1.232-2.753-2.753v-228.071c0-1.521,1.232-2.753,2.753-2.753
		s2.753,1.232,2.753,2.753v228.071C1610.662,2568.796,1609.429,2570.028,1607.909,2570.028z"/>
	<path fill="#797979" d="M1813,2570.028c-1.521,0-2.753-1.232-2.753-2.753v-228.071c0-1.521,1.232-2.753,2.753-2.753
		s2.753,1.232,2.753,2.753v228.071C1815.752,2568.796,1814.52,2570.028,1813,2570.028z"/>
	<path fill="#797979" d="M986.132,1192.569H748.145c-2.172,0-3.933-1.761-3.933-3.933s1.761-3.933,3.933-3.933h237.988
		c2.172,0,3.933,1.761,3.933,3.933S988.304,1192.569,986.132,1192.569z"/>
	<path fill="#797979" d="M986.132,1635.569H748.145c-2.172,0-3.933-1.761-3.933-3.933s1.761-3.933,3.933-3.933h237.988
		c2.172,0,3.933,1.761,3.933,3.933S988.304,1635.569,986.132,1635.569z"/>
	<path fill="#797979" d="M925.134,1258.137c-0.011,0-0.021,0-0.033,0c-2.172-0.018-3.918-1.792-3.9-3.964l0.533-65.568
		c0.018-2.161,1.775-3.901,3.932-3.901c0.011,0,0.021,0,0.033,0c2.172,0.018,3.918,1.792,3.9,3.965l-0.533,65.568
		C929.048,1256.397,927.291,1258.137,925.134,1258.137z"/>
	<path fill="#797979" d="M924.599,1481.47c-2.165,0-3.923-1.75-3.932-3.916l-0.533-128.667c-0.009-2.172,1.744-3.94,3.917-3.949
		c0.005,0,0.011,0,0.017,0c2.165,0,3.923,1.75,3.932,3.917l0.533,128.666c0.009,2.172-1.744,3.94-3.917,3.949
		C924.61,1481.47,924.604,1481.47,924.599,1481.47z"/>
	<path fill="#797979" d="M923.532,1635.569c-2.157,0-3.914-1.738-3.932-3.899l-0.533-63.433c-0.019-2.172,1.728-3.947,3.899-3.966
		c0.011,0,0.023,0,0.034,0c2.157,0,3.914,1.738,3.932,3.899l0.533,63.433c0.019,2.172-1.728,3.947-3.899,3.966
		C923.555,1635.569,923.543,1635.569,923.532,1635.569z"/>
	<path fill="#797979" d="M1199.363,1258.137c-0.011,0-0.021,0-0.033,0c-2.172-0.018-3.918-1.792-3.9-3.964l0.533-65.568
		c0.018-2.161,1.775-3.901,3.932-3.901c0.011,0,0.021,0,0.033,0c2.172,0.018,3.918,1.792,3.9,3.965l-0.533,65.568
		C1203.277,1256.397,1201.52,1258.137,1199.363,1258.137z"/>
	<path fill="#797979" d="M1198.828,1481.47c-2.165,0-3.923-1.75-3.932-3.916l-0.533-128.667c-0.009-2.172,1.744-3.94,3.917-3.949
		c0.005,0,0.011,0,0.017,0c2.165,0,3.923,1.75,3.932,3.917l0.533,128.666c0.009,2.172-1.744,3.94-3.917,3.949
		C1198.839,1481.47,1198.833,1481.47,1198.828,1481.47z"/>
	<path fill="#797979" d="M1197.761,1635.569c-2.157,0-3.914-1.738-3.932-3.899l-0.533-63.433c-0.019-2.172,1.728-3.947,3.899-3.966
		c0.011,0,0.023,0,0.034,0c2.157,0,3.914,1.738,3.932,3.899l0.533,63.433c0.019,2.172-1.728,3.947-3.899,3.966
		C1197.784,1635.569,1197.772,1635.569,1197.761,1635.569z"/>
	<path fill="#797979" d="M1453.666,1192.569H1125c-2.172,0-3.933-1.761-3.933-3.933s1.761-3.933,3.933-3.933h328.667
		c2.172,0,3.933,1.761,3.933,3.933S1455.838,1192.569,1453.666,1192.569z"/>
	<path fill="#797979" d="M1376.479,1635.569h-256.48c-2.172,0-3.933-1.761-3.933-3.933s1.761-3.933,3.933-3.933h256.48
		c2.172,0,3.933,1.761,3.933,3.933S1378.651,1635.569,1376.479,1635.569z"/>
	<path fill="#797979" d="M1376.479,1635.569c-2.172,0-3.933-1.761-3.933-3.933v-443c0-2.172,1.761-3.933,3.933-3.933
		s3.933,1.761,3.933,3.933v443C1380.412,1633.809,1378.651,1635.569,1376.479,1635.569z"/>
	<path fill="#797979" d="M923,1764.886H602.81c-2.172,0-3.933-1.761-3.933-3.933s1.761-3.933,3.933-3.933H923
		c2.172,0,3.933,1.761,3.933,3.933S925.171,1764.886,923,1764.886z"/>
	<path fill="#797979" d="M923,1820.97c-2.172,0-3.933-1.761-3.933-3.933v-56.084c0-2.172,1.761-3.933,3.933-3.933
		s3.933,1.761,3.933,3.933v56.084C926.932,1819.209,925.171,1820.97,923,1820.97z"/>
	<path fill="#797979" d="M1005,1820.97h-82c-2.172,0-3.933-1.761-3.933-3.933s1.761-3.933,3.933-3.933h82
		c2.172,0,3.933,1.761,3.933,3.933S1007.171,1820.97,1005,1820.97z"/>
	<path fill="#797979" d="M1381.5,1820.97h-240.313c-2.172,0-3.933-1.761-3.933-3.933s1.761-3.933,3.933-3.933H1381.5
		c2.172,0,3.933,1.761,3.933,3.933S1383.671,1820.97,1381.5,1820.97z"/>
	<path fill="#797979" d="M1217.209,1820.97c-2.172,0-3.933-1.761-3.933-3.933v-185.4c0-2.172,1.761-3.933,3.933-3.933
		s3.933,1.761,3.933,3.933v185.4C1221.142,1819.209,1219.381,1820.97,1217.209,1820.97z"/>
	<path fill="#797979" d="M1381.5,1820.97c-2.172,0-3.933-1.761-3.933-3.933v-13.75c0-2.172,1.761-3.933,3.933-3.933
		s3.933,1.761,3.933,3.933v13.75C1385.432,1819.209,1383.671,1820.97,1381.5,1820.97z"/>
	<path fill="#797979" d="M1381.5,1739.72c-2.172,0-3.933-1.761-3.933-3.933v-104.15c0-2.172,1.761-3.933,3.933-3.933
		s3.933,1.761,3.933,3.933v104.15C1385.432,1737.959,1383.671,1739.72,1381.5,1739.72z"/>
	<path fill="#797979" d="M1843,1635.569h-466.521c-2.172,0-3.933-1.761-3.933-3.933s1.761-3.933,3.933-3.933H1843
		c2.172,0,3.933,1.761,3.933,3.933S1845.171,1635.569,1843,1635.569z"/>
	<path fill="#797979" d="M1397.914,1687.645h-15.165c-2.172,0-3.933-1.761-3.933-3.933s1.761-3.933,3.933-3.933h15.165
		c2.172,0,3.933,1.761,3.933,3.933S1400.086,1687.645,1397.914,1687.645z"/>
	<path fill="#797979" d="M1502.599,1687.645H1485.5c-2.172,0-3.933-1.761-3.933-3.933s1.761-3.933,3.933-3.933h17.099
		c2.172,0,3.933,1.761,3.933,3.933S1504.771,1687.645,1502.599,1687.645z"/>
	<path fill="#797979" d="M1502.599,1687.645c-2.172,0-3.933-1.761-3.933-3.933v-51.117c0-2.172,1.761-3.933,3.933-3.933
		s3.933,1.761,3.933,3.933v51.117C1506.531,1685.884,1504.771,1687.645,1502.599,1687.645z"/>
	<path fill="#797979" d="M1852.75,1640.72H1843c-2.172,0-3.933-1.761-3.933-3.933s1.761-3.933,3.933-3.933h9.75
		c2.172,0,3.933,1.761,3.933,3.933S1854.921,1640.72,1852.75,1640.72z"/>
	<path fill="#797979" d="M1843,1640.72c-2.172,0-3.933-1.761-3.933-3.933v-5.15c0-2.172,1.761-3.933,3.933-3.933
		s3.933,1.761,3.933,3.933v5.15C1846.932,1638.959,1845.171,1640.72,1843,1640.72z"/>
	<path fill="#797979" d="M2322.625,1640.72h-405.958c-2.172,0-3.933-1.761-3.933-3.933s1.761-3.933,3.933-3.933h405.958
		c2.172,0,3.933,1.761,3.933,3.933S2324.796,1640.72,2322.625,1640.72z"/>
	<path fill="#797979" d="M2322.625,1640.72c-2.172,0-3.933-1.761-3.933-3.933v-265.901c0-2.172,1.761-3.933,3.933-3.933
		s3.933,1.761,3.933,3.933v265.901C2326.557,1638.959,2324.796,1640.72,2322.625,1640.72z"/>
	<path fill="#797979" d="M2322.625,1305.019c-2.172,0-3.933-1.761-3.933-3.933v-119.633c0-2.172,1.761-3.933,3.933-3.933
		s3.933,1.761,3.933,3.933v119.633C2326.557,1303.258,2324.796,1305.019,2322.625,1305.019z"/>
	<path fill="#797979" d="M2322.625,1120.579c-0.022,0-0.044,0-0.066,0c-2.172-0.036-3.903-1.826-3.867-3.998l2.375-142.075
		c0.037-2.171,1.848-3.923,3.998-3.866c2.172,0.036,3.903,1.826,3.867,3.998l-2.375,142.075
		C2326.521,1118.861,2324.767,1120.579,2322.625,1120.579z"/>
	<path fill="#797979" d="M2325,978.504h-13.596c-2.172,0-3.933-1.761-3.933-3.933s1.761-3.933,3.933-3.933H2325
		c2.172,0,3.933,1.761,3.933,3.933S2327.171,978.504,2325,978.504z"/>
	<path fill="#797979" d="M2245.367,978.504H2189c-2.172,0-3.933-1.761-3.933-3.933s1.761-3.933,3.933-3.933h56.367
		c2.172,0,3.933,1.761,3.933,3.933S2247.539,978.504,2245.367,978.504z"/>
	<path fill="#797979" d="M2049.667,978.504h-56.058c-2.172,0-3.933-1.761-3.933-3.933s1.761-3.933,3.933-3.933h56.058
		c2.172,0,3.933,1.761,3.933,3.933S2051.838,978.504,2049.667,978.504z"/>
	<path fill="#797979" d="M1993.609,1055.773c-2.172,0-3.933-1.761-3.933-3.933v-77.269c0-2.172,1.761-3.933,3.933-3.933
		s3.933,1.761,3.933,3.933v77.269C1997.542,1054.012,1995.781,1055.773,1993.609,1055.773z"/>
	<path fill="#797979" d="M1873.975,1055.773c-2.172,0-3.933-1.761-3.933-3.933V935.942c0-2.172,1.761-3.933,3.933-3.933
		s3.933,1.761,3.933,3.933v115.898C1877.908,1054.012,1876.147,1055.773,1873.975,1055.773z"/>
	<path fill="#797979" d="M2322.625,1055.773H1207.236c-2.172,0-3.933-1.761-3.933-3.933s1.761-3.933,3.933-3.933h1115.389
		c2.172,0,3.933,1.761,3.933,3.933S2324.796,1055.773,2322.625,1055.773z"/>
	<path fill="#797979" d="M2018.532,1192.569h-495.985c-2.172,0-3.933-1.761-3.933-3.933s1.761-3.933,3.933-3.933h495.985
		c2.172,0,3.933,1.761,3.933,3.933S2020.704,1192.569,2018.532,1192.569z"/>
	<path fill="#797979" d="M2321,1192.569h-236.406c-2.172,0-3.933-1.761-3.933-3.933s1.761-3.933,3.933-3.933H2321
		c2.172,0,3.933,1.761,3.933,3.933S2323.171,1192.569,2321,1192.569z"/>
	<path fill="#797979" d="M839,2340.652H605.304c-2.172,0-3.933-1.761-3.933-3.933s1.761-3.933,3.933-3.933H839
		c2.172,0,3.933,1.761,3.933,3.933S841.171,2340.652,839,2340.652z"/>
	<path fill="#797979" d="M1022.796,2340.652H914.368c-2.172,0-3.933-1.761-3.933-3.933s1.761-3.933,3.933-3.933h108.428
		c2.172,0,3.933,1.761,3.933,3.933S1024.968,2340.652,1022.796,2340.652z"/>
	<path fill="#797979" d="M1121.249,2340.652h-27.417c-2.172,0-3.933-1.761-3.933-3.933s1.761-3.933,3.933-3.933h27.417
		c2.172,0,3.933,1.761,3.933,3.933S1123.42,2340.652,1121.249,2340.652z"/>
	<path fill="#797979" d="M1532.502,2340.652h-343.958c-2.172,0-3.933-1.761-3.933-3.933s1.761-3.933,3.933-3.933h343.958
		c2.172,0,3.933,1.761,3.933,3.933S1534.674,2340.652,1532.502,2340.652z"/>
	<path fill="#797979" d="M1618.5,2340.652h-21.182c-2.172,0-3.933-1.761-3.933-3.933s1.761-3.933,3.933-3.933h21.182
		c2.172,0,3.933,1.761,3.933,3.933S1620.671,2340.652,1618.5,2340.652z"/>
	<path fill="#797979" d="M1820.39,2340.652h-130.855c-2.172,0-3.933-1.761-3.933-3.933s1.761-3.933,3.933-3.933h130.855
		c2.172,0,3.933,1.761,3.933,3.933S1822.562,2340.652,1820.39,2340.652z"/>
	<path fill="#797979" d="M2134.447,2340.652h-244.261c-2.172,0-3.933-1.761-3.933-3.933s1.761-3.933,3.933-3.933h244.261
		c2.172,0,3.933,1.761,3.933,3.933S2136.619,2340.652,2134.447,2340.652z"/>
	<path fill="#797979" d="M2204.236,2414.178c-1.041,0-2.08-0.41-2.854-1.226l-69.788-73.525c-1.495-1.575-1.431-4.064,0.146-5.56
		c1.575-1.496,4.063-1.432,5.56,0.146l69.788,73.525c1.495,1.575,1.431,4.064-0.146,5.56
		C2206.181,2413.819,2205.208,2414.178,2204.236,2414.178z"/>
	<path fill="#797979" d="M1207.236,1055.773c-2.172,0-3.933-1.761-3.933-3.933v-73.521c0-2.172,1.761-3.933,3.933-3.933
		s3.933,1.761,3.933,3.933v73.521C1211.168,1054.012,1209.408,1055.773,1207.236,1055.773z"/>
	<path fill="#797979" d="M1207.236,982.251h-77.57c-2.172,0-3.933-1.761-3.933-3.933s1.761-3.933,3.933-3.933h77.57
		c2.172,0,3.933,1.761,3.933,3.933S1209.408,982.251,1207.236,982.251z"/>
	<path fill="#797979" d="M1173.593,982.251c-2.172,0-3.933-1.761-3.933-3.933v-37.782c0-2.172,1.761-3.933,3.933-3.933
		s3.933,1.761,3.933,3.933v37.782C1177.525,980.491,1175.765,982.251,1173.593,982.251z"/>
	<path fill="#797979" d="M1174.75,877.561c-2.172,0-3.933-1.761-3.933-3.933v-23.841c0-2.172,1.761-3.933,3.933-3.933
		s3.933,1.761,3.933,3.933v23.841C1178.682,875.8,1176.921,877.561,1174.75,877.561z"/>
	<path fill="#797979" d="M1174.75,789.084c-2.172,0-3.933-1.761-3.933-3.933v-34.115c0-2.172,1.761-3.933,3.933-3.933
		s3.933,1.761,3.933,3.933v34.115C1178.682,787.324,1176.921,789.084,1174.75,789.084z"/>
	<path fill="#797979" d="M1174.75,486.238c-2.172,0-3.933-1.761-3.933-3.933v-87.237c0-2.172,1.761-3.933,3.933-3.933
		s3.933,1.761,3.933,3.933v87.237C1178.682,484.477,1176.921,486.238,1174.75,486.238z"/>
	<path fill="#797979" d="M1873.975,407.727H1174.75c-2.172,0-3.933-1.761-3.933-3.933s1.761-3.933,3.933-3.933h699.226
		c2.172,0,3.933,1.761,3.933,3.933S1876.147,407.727,1873.975,407.727z"/>
	<path fill="#797979" d="M1873.975,877.137c-2.172,0-3.933-1.761-3.933-3.933v-23.667c0-2.172,1.761-3.933,3.933-3.933
		s3.933,1.761,3.933,3.933v23.667C1877.908,875.376,1876.147,877.137,1873.975,877.137z"/>
	<path fill="#797979" d="M1873.975,787.83c-2.172,0-3.933-1.761-3.933-3.933V403.794c0-2.172,1.761-3.933,3.933-3.933
		s3.933,1.761,3.933,3.933v380.104C1877.908,786.069,1876.147,787.83,1873.975,787.83z"/>
	<path fill="#797979" d="M2325,860.108h-331.391c-2.172,0-3.933-1.761-3.933-3.933s1.761-3.933,3.933-3.933H2325
		c2.172,0,3.933,1.761,3.933,3.933S2327.171,860.108,2325,860.108z"/>
	<path fill="#797979" d="M2325,860.107c-2.172,0-3.933-1.761-3.933-3.933V750.247c0-2.172,1.761-3.933,3.933-3.933
		s3.933,1.761,3.933,3.933v105.928C2328.932,858.347,2327.171,860.107,2325,860.107z"/>
	<path fill="#797979" d="M2325,685.47c-2.172,0-3.933-1.761-3.933-3.933V562.068c0-2.172,1.761-3.933,3.933-3.933
		s3.933,1.761,3.933,3.933v119.469C2328.932,683.709,2327.171,685.47,2325,685.47z"/>
	<path fill="#797979" d="M2325,494.963c-2.172,0-3.933-1.761-3.933-3.933v-20.827c0-2.172,1.761-3.933,3.933-3.933
		s3.933,1.761,3.933,3.933v20.827C2328.932,493.203,2327.171,494.963,2325,494.963z"/>
	<path fill="#797979" d="M2325,402.748c-2.172,0-3.933-1.761-3.933-3.933V290.389c0-2.172,1.761-3.933,3.933-3.933
		s3.933,1.761,3.933,3.933v108.427C2328.932,400.987,2327.171,402.748,2325,402.748z"/>
	<path fill="#797979" d="M2325,294.321h-252.867c-2.172,0-3.933-1.761-3.933-3.933s1.761-3.933,3.933-3.933H2325
		c2.172,0,3.933,1.761,3.933,3.933S2327.171,294.321,2325,294.321z"/>
	<path fill="#797979" d="M2072.132,860.107c-2.172,0-3.933-1.761-3.933-3.933V292.886c0-2.172,1.761-3.933,3.933-3.933
		s3.933,1.761,3.933,3.933v563.289C2076.065,858.347,2074.304,860.107,2072.132,860.107z"/>
	<path fill="#797979" d="M2072.132,407.727h-78.523c-2.172,0-3.933-1.761-3.933-3.933s1.761-3.933,3.933-3.933h78.523
		c2.172,0,3.933,1.761,3.933,3.933S2074.304,407.727,2072.132,407.727z"/>
	<path fill="#797979" d="M748.145,1635.569c-2.172,0-3.933-1.761-3.933-3.933v-443c0-2.172,1.761-3.933,3.933-3.933
		s3.933,1.761,3.933,3.933v443C752.077,1633.809,750.316,1635.569,748.145,1635.569z"/>
</g>
<g id="Exterior_Walls">
	<path fill="#454545" d="M2047.167,2584.93H599c-5.647,0-10.225-4.578-10.225-10.226v-815.597c0-5.647,4.578-10.226,10.225-10.226
		s10.225,4.578,10.225,10.226v805.371h1433.707l733.843-733.843v-9.098c0-5.647,4.578-10.226,10.226-10.226h255.774V151.763H902.951
		v822.554c0,5.647-4.578,10.226-10.226,10.226s-10.225-4.578-10.225-10.226V141.537c0-5.647,4.578-10.225,10.225-10.225H3053
		c5.647,0,10.226,4.578,10.226,10.225v1680.001c0,5.647-4.578,10.226-10.226,10.226h-255.774v3.107c0,2.712-1.077,5.313-2.995,7.23
		l-739.833,739.833C2052.479,2583.853,2049.878,2584.93,2047.167,2584.93z"/>
</g>
<g id="Labels">
	<text transform="matrix(1 0 0 1 1870.2788 1348.2627)" fill="#535453" font-family="'ArialRoundedMTBold'" font-size="17.9527">[stairs]</text>
	<text transform="matrix(1 0 0 1 1242.2227 1317.5317)" fill="#535453" font-family="'ArialRoundedMTBold'" font-size="38.7793">Elev</text>
	<text transform="matrix(1 0 0 1 1242.2227 1532.8652)" fill="#535453" font-family="'ArialRoundedMTBold'" font-size="38.7793">Elev</text>
	<text transform="matrix(1 0 0 1 784.2227 1317.5317)" fill="#535453" font-family="'ArialRoundedMTBold'" font-size="38.7793">Elev</text>
	<text transform="matrix(1 0 0 1 784.2227 1532.8652)" fill="#535453" font-family="'ArialRoundedMTBold'" font-size="38.7793">Elev</text>
	<text transform="matrix(1 0 0 1 1245.332 1741.3369)" fill="#535453" font-family="'ArialRoundedMTBold'" font-size="25.8529">Storage</text>
	<text transform="matrix(1 0 0 1 1624.1641 1741.3369)" fill="#535453" font-family="'ArialRoundedMTBold'" font-size="25.8529">Break</text>
	<text transform="matrix(1 0 0 1 2000.3169 1521.043)" fill="#535453" font-family="'ArialRoundedMTBold'" font-size="25.8529">Game Room</text>
	<text transform="matrix(1 0 0 1 1305.8315 957.124)" fill="#535453" font-family="'ArialRoundedMTBold'" font-size="25.8529">Galley</text>
	<text transform="matrix(1 0 0 1 1637.8315 957.124)" fill="#535453" font-family="'ArialRoundedMTBold'" font-size="25.8529">IT/Storage</text>
	<text transform="matrix(1 0 0 1 1937.8237 621.8022)" fill="#535453" font-family="'ArialRoundedMTBold'" font-size="25.8529">Copy</text>
</g>
</svg>
